<?xml version="1.0" encoding="UTF-8"?>
<svg id="Layer_1" data-name="Layer 1" xmlns="http://www.w3.org/2000/svg" viewBox="0 0 905.61 618.49">
  <defs>
    <style>
      .cls-1 {
        fill: #58b0e3;
      }
    </style>
  </defs>
  <path class="cls-1" d="M394.44,267.21c218.64-43.3,350.17-143.35,428.61-238.26L771.11,0c-74.4,87.3-193.63,170.11-385.01,208.53l-5.78-40.65-111.56,87.46,131.51,52.91-5.83-41.05Z"/>
  <path class="cls-1" d="M859.71,470.56c-115.42,75.96-310.63,141.01-589.24,29.68l17.33-37.27-141.2,12.51,81.42,116.04,17.39-37.41c115.69,46.58,218.68,64.37,307.81,64.37,157.53,0,272.18-54.45,339.04-98.43,13.67-8.99,17.45-27.37,8.47-41.03-9.01-13.66-27.35-17.42-41.03-8.47Z"/>
  <path class="cls-1" d="M833.3,291.17c13-9.93,15.46-28.53,5.52-41.52-9.93-12.98-28.53-15.47-41.52-5.49-103.45,79.18-327.18,191.16-672.41,69.6l15.54-38.14L0,294.94l86.93,111.97,15.5-38.05c117.72,41.84,222.76,58.47,314.76,58.47,199.6,0,338.53-76.76,416.1-136.17Z"/>
</svg>