<svg width="71" height="60" viewBox="0 0 71 60" fill="none" xmlns="http://www.w3.org/2000/svg">
<path d="M35.2892 8.64267e-07C41.0294 8.64267e-07 46.4652 1.32222 51.5966 3.96667C56.5106 6.52296 60.6527 10.0599 64.0229 14.5775C67.3931 19.0951 69.5783 24.1526 70.5785 29.75C69.5783 35.3474 67.3931 40.4049 64.0229 44.9225C60.6527 49.4401 56.5106 52.977 51.5966 55.5333C46.4652 58.1778 41.0294 59.5 35.2892 59.5C29.549 59.5 24.1132 58.1778 18.9818 55.5333C14.0679 52.977 9.92577 49.4401 6.55558 44.9225C3.18538 40.4049 1.00019 35.3474 0 29.75C1.00019 24.1526 3.18538 19.0951 6.55558 14.5775C9.92577 10.0599 14.0679 6.52296 18.9818 3.96667C24.1132 1.32222 29.549 8.64267e-07 35.2892 8.64267e-07ZM35.2892 52.8889C39.8118 52.8889 44.117 51.8752 48.2047 49.8478C52.162 47.9085 55.5213 45.1759 58.2827 41.65C61.0441 38.1241 62.9248 34.1574 63.925 29.75C62.9248 25.3426 61.0441 21.3759 58.2827 17.85C55.5213 14.3241 52.162 11.5915 48.2047 9.65222C44.117 7.62482 39.8118 6.61111 35.2892 6.61111C30.7666 6.61111 26.4615 7.62482 22.3738 9.65222C18.4165 11.5915 15.0572 14.3241 12.2958 17.85C9.5344 21.3759 7.65361 25.3426 6.65342 29.75C7.65361 34.1574 9.5344 38.1241 12.2958 41.65C15.0572 45.1759 18.4165 47.9085 22.3738 49.8478C26.4615 51.8752 30.7666 52.8889 35.2892 52.8889ZM35.2892 44.625C32.6366 44.625 30.1904 43.9529 27.9509 42.6086C25.7113 41.2644 23.9284 39.4573 22.6021 37.1875C21.2757 34.9177 20.6126 32.4385 20.6126 29.75C20.6126 27.0615 21.2757 24.5823 22.6021 22.3125C23.9284 20.0427 25.7113 18.2356 27.9509 16.8914C30.1904 15.5471 32.6366 14.875 35.2892 14.875C37.9419 14.875 40.388 15.5471 42.6276 16.8914C44.8671 18.2356 46.6501 20.0427 47.9764 22.3125C49.3027 24.5823 49.9659 27.0615 49.9659 29.75C49.9659 32.4385 49.3027 34.9177 47.9764 37.1875C46.6501 39.4573 44.8671 41.2644 42.6276 42.6086C40.388 43.9529 37.9419 44.625 35.2892 44.625ZM35.2892 38.0139C36.7678 38.0139 38.1267 37.6393 39.3661 36.89C40.6054 36.1407 41.5948 35.1381 42.334 33.8819C43.0733 32.6258 43.4429 31.2485 43.4429 29.75C43.4429 28.2515 43.0733 26.8742 42.334 25.6181C41.5948 24.3619 40.6054 23.3593 39.3661 22.61C38.1267 21.8607 36.7678 21.4861 35.2892 21.4861C33.8107 21.4861 32.4517 21.8607 31.2124 22.61C29.973 23.3593 28.9837 24.3619 28.2444 25.6181C27.5052 26.8742 27.1355 28.2515 27.1355 29.75C27.1355 31.2485 27.5052 32.6258 28.2444 33.8819C28.9837 35.1381 29.973 36.1407 31.2124 36.89C32.4517 37.6393 33.8107 38.0139 35.2892 38.0139Z" fill="#4A6B8A"/>
</svg>
