<svg width="70" height="62" viewBox="0 0 70 62" fill="none" xmlns="http://www.w3.org/2000/svg">
<path d="M51.1938 -1.99005e-05C54.4967 -1.99005e-05 57.5353 0.867389 60.3096 2.60221C63.084 4.33703 65.2639 6.6946 66.8492 9.67493C68.5227 12.7887 69.3594 16.2361 69.3594 20.0171C69.3594 25.1771 68.1704 30.1369 65.7923 34.8965C63.7666 38.9444 60.8821 42.8367 57.1389 46.5732C54.2324 49.509 50.7755 52.3782 46.768 55.1806C44.5221 56.7374 41.5716 58.6057 37.9165 60.7853L36.3311 61.7195L34.7457 60.7853C30.9145 58.5167 27.8318 56.5595 25.4978 54.9137C21.3142 51.9778 17.7252 48.953 14.7306 45.8392C10.9434 41.8358 8.08092 37.6989 6.14326 33.4286L0 33.3619V26.6895L4.02945 26.7562C3.54503 24.5321 3.30283 22.2857 3.30283 20.0171C3.30283 16.2361 4.13954 12.7887 5.81298 9.67493C7.39833 6.6946 9.5782 4.33703 12.3526 2.60221C15.1269 0.867389 18.1656 -1.99005e-05 21.4684 -1.99005e-05C24.3308 -1.99005e-05 27.1713 0.7117 29.9897 2.13514C32.3677 3.29169 34.4815 4.80409 36.3311 6.67236C38.1807 4.80409 40.2945 3.29169 42.6725 2.13514C45.4909 0.7117 48.3314 -1.99005e-05 51.1938 -1.99005e-05ZM51.1938 6.67236C49.4323 6.67236 47.6488 7.10606 45.8432 7.97347C44.0377 8.84088 42.4303 9.98631 41.0211 11.4097L36.3311 16.1471L31.6411 11.4097C30.2319 9.98631 28.6245 8.84088 26.819 7.97347C25.0134 7.10606 23.2299 6.67236 21.4684 6.67236C19.3546 6.67236 17.4169 7.25063 15.6554 8.40718C13.8939 9.56372 12.4957 11.154 11.4608 13.1779C10.4259 15.2019 9.90848 17.5039 9.90848 20.0838C9.90848 22.308 10.1947 24.5321 10.7672 26.7562L17.9674 26.6895L24.7712 15.213L34.6797 31.8939L37.7843 26.6895H52.8452V33.3619H41.4835L34.6797 44.9051L24.7712 28.2241L21.6665 33.3619L13.5416 33.4286C16.0958 37.8768 19.9931 42.2139 25.2336 46.4397C27.5676 48.308 30.2319 50.1985 33.2264 52.1113C34.1512 52.6895 35.1861 53.3123 36.3311 53.9795C37.4761 53.3123 38.511 52.6895 39.4358 52.1113C42.4303 50.1985 45.0946 48.308 47.4286 46.4397C52.4489 42.3918 56.2361 38.2327 58.7903 33.9624C61.4326 29.5141 62.7537 24.888 62.7537 20.0838C62.7537 17.5039 62.2473 15.1908 61.2344 13.1446C60.2216 11.0984 58.8344 9.51924 57.0729 8.40718C55.3114 7.29511 53.3517 6.71684 51.1938 6.67236Z" fill="#4A6B8A"/>
</svg>
