<svg width="71" height="71" viewBox="0 0 71 71" fill="none" xmlns="http://www.w3.org/2000/svg">
<path d="M35.0267 71C30.263 71 25.7096 70.077 21.3663 68.231C17.2098 66.4323 13.5086 63.8882 10.2628 60.5985C7.01701 57.3088 4.50676 53.5577 2.73208 49.345C0.910693 44.943 0 40.328 0 35.5C0 30.672 0.910693 26.057 2.73208 21.655C4.50676 17.4423 7.01701 13.6912 10.2628 10.4015C13.5086 7.11183 17.2098 4.56766 21.3663 2.769C25.7096 0.922998 30.263 -2.32458e-06 35.0267 -2.32458e-06C39.7903 -2.32458e-06 44.3438 0.922998 48.6871 2.769C52.8436 4.56766 56.5447 7.11183 59.7905 10.4015C63.0363 13.6912 65.5466 17.4423 67.3213 21.655C69.1426 26.057 70.0533 30.672 70.0533 35.5C70.0533 40.328 69.1426 44.943 67.3213 49.345C65.5466 53.5577 63.0363 57.3088 59.7905 60.5985C56.5447 63.8882 52.8436 66.4323 48.6871 68.231C44.3438 70.077 39.7903 71 35.0267 71ZM35.0267 63.9C40.1172 63.9 44.8341 62.5983 49.1774 59.995C53.3806 57.4863 56.7199 54.102 59.1951 49.842C61.7637 45.44 63.048 40.6593 63.048 35.5C63.048 30.3407 61.7637 25.56 59.1951 21.158C56.7199 16.898 53.3806 13.5137 49.1774 11.005C44.8341 8.40166 40.1172 7.1 35.0267 7.1C29.9361 7.1 25.2192 8.40166 20.8759 11.005C16.6727 13.5137 13.3335 16.898 10.8583 21.158C8.28965 25.56 7.00533 30.3407 7.00533 35.5C7.00533 40.6593 8.28965 45.44 10.8583 49.842C13.3335 54.102 16.6727 57.4863 20.8759 59.995C25.2192 62.5983 29.9361 63.9 35.0267 63.9ZM38.5293 35.5H52.54V42.6H31.524V17.75H38.5293V35.5Z" fill="#4A6B8A"/>
</svg>
