<svg width="69" height="86" viewBox="0 0 69 86" fill="none" xmlns="http://www.w3.org/2000/svg">
<path d="M34.3387 2.98321e-05L65.7014 7.04508C66.5662 7.25153 67.2784 7.71604 67.838 8.43861C68.3976 9.16118 68.6774 9.96117 68.6774 10.8386V49.4703C68.6774 53.3928 67.7744 57.0572 65.9685 60.4636C64.1625 63.87 61.6571 66.6571 58.4521 68.8248L34.3387 85.16L10.2253 68.8248C7.02036 66.6571 4.5149 63.87 2.70894 60.4636C0.902981 57.0572 0 53.3928 0 49.4703V10.8386C0 9.96117 0.279797 9.16118 0.839391 8.43861C1.39898 7.71604 2.11119 7.25153 2.97602 7.04508L34.3387 2.98321e-05ZM34.3387 7.89668L7.63082 13.9353V49.4703C7.63082 52.1025 8.22857 54.554 9.42407 56.825C10.6196 59.0959 12.2856 60.9539 14.4223 62.3991L34.3387 75.8699L54.2552 62.3991C56.3918 60.9539 58.0579 59.0959 59.2534 56.825C60.4488 54.554 61.0466 52.1025 61.0466 49.4703V13.9353L34.3387 7.89668ZM51.3554 27.948L56.697 33.4447L32.431 58.0637L16.2537 41.651L21.6715 36.1543L32.431 47.1477L51.3554 27.948Z" fill="#4A6B8A"/>
</svg>
